<svg id="all" xmlns="http://www.w3.org/2000/svg" width="1985" height="1323" viewBox="0 0 1985 1323">
  <metadata><?xpacket begin="﻿" id="W5M0MpCehiHzreSzNTczkc9d"?>
<x:xmpmeta xmlns:x="adobe:ns:meta/" x:xmptk="Adobe XMP Core 5.6-c140 79.160451, 2017/05/06-01:08:21        ">
   <rdf:RDF xmlns:rdf="http://www.w3.org/1999/02/22-rdf-syntax-ns#">
      <rdf:Description rdf:about=""/>
   </rdf:RDF>
</x:xmpmeta>
                                                                                                    
                                                                                                    
                                                                                                    
                                                                                                    
                                                                                                    
                                                                                                    
                                                                                                    
                                                                                                    
                                                                                                    
                                                                                                    
                                                                                                    
                                                                                                    
                                                                                                    
                                                                                                    
                                                                                                    
                                                                                                    
                                                                                                    
                                                                                                    
                                                                                                    
                                                                                                    
                           
<?xpacket end="w"?></metadata>
<defs>
    <style>
      .cls-1, .cls-3 {
        fill: #333;
        fill-rule: evenodd;
      }

      .cls-2 {
        fill: none;
      }

      .cls-2, .cls-3 {
        stroke: #333;
        stroke-width: 20px;
      }
    </style>
  </defs>
  <path id="Tap" class="cls-1" d="M601.886,588.846q6.54-1.593,14.688-3.35t17.4-3.351q9.257-1.593,18.839-2.872l-21.394,88.706q-7.349,31.276-13.092,55.362t-9.9,42.119q-4.154,18.031-7.185,30.632t-4.949,20.9q-4.789,19.78-5.748,24.25-1.279,5.1.479,6.86t9.42,1.755a34.306,34.306,0,0,0,7.663-.957,64.671,64.671,0,0,0,7.983-2.074,68.815,68.815,0,0,0,9.58-3.988q0.636-5.745,1.6-12.764t2.076-14.678q1.115-7.658,2.554-15.635t2.714-15.316Q637.8,766.9,641,748.708q3.189-18.823,8.782-42.279T661.6,659.2q6.227-23.766,12.294-45.31t10.218-36.216h17.242q7.663,0,17.722.16t20.915,0.478a12.793,12.793,0,0,0,3.353-2.393,15.671,15.671,0,0,0,2.395-3.031,7.568,7.568,0,0,0,1.6-3.51q0.315-1.915.639-3.829a12.443,12.443,0,0,0-.319-6.382q-10.224-1.272-20.6-2.074t-18.68-1.436q-9.9-.636-19.158-0.957a21.2,21.2,0,0,0-3.034-.479,15.886,15.886,0,0,0-4.63.479c-1.706,0-3.408-.05-5.109-0.16s-3.408-.159-5.109-0.159q-11.817,0-24.587.957-11.181.644-25.066,1.914t-28.578,3.829a9.228,9.228,0,0,0-4.63,2.394,16.309,16.309,0,0,0-3.034,4.307,29.846,29.846,0,0,0-2.075,5.425,40.317,40.317,0,0,0-1.118,5.105,42.255,42.255,0,0,0-.319,5.265,12.4,12.4,0,0,0,.958,4.946,6.064,6.064,0,0,0,2.874,3.191q1.916,0.957,5.747-.319Q595.341,590.44,601.886,588.846ZM882.018,718.554a3.989,3.989,0,0,0-5.269-4.467,8.56,8.56,0,0,0-4.63,3.032q-6.392,7.658-16.125,18.188a255.121,255.121,0,0,1-21.075,20.261,155.3,155.3,0,0,1-23.15,16.593q-11.817,6.866-22.671,6.86a35.882,35.882,0,0,1-10.058-1.436,22.807,22.807,0,0,1-8.781-4.786,26.294,26.294,0,0,1-6.386-8.775,34.519,34.519,0,0,1-2.874-13.4q4.789-3.509,11.176-7.818t13.411-9.094q6.384-4.464,13.571-9.892a111.846,111.846,0,0,0,13.57-12.125,73.71,73.71,0,0,0,11.017-15,46.036,46.036,0,0,0,5.588-18.188q0.636-8.929-4.79-15t-17.562-6.063q-12.776,0-25.386,7.978a96.258,96.258,0,0,0-22.671,20.1A125.767,125.767,0,0,0,742,712.173q-6.87,14.523-8.143,27.6-1.593,15.959,2.395,27.122a50.454,50.454,0,0,0,10.7,18.188,43.222,43.222,0,0,0,14.848,10.37,40.042,40.042,0,0,0,15.167,3.351,67.233,67.233,0,0,0,27.621-6.382,140.932,140.932,0,0,0,27.78-16.752,197.682,197.682,0,0,0,25.705-23.612,243.522,243.522,0,0,0,21.713-27.282A12.02,12.02,0,0,0,882.018,718.554Zm-78.551-40.2q1.917,2.713,1.278,8.775-0.645,5.743-6.067,13.72t-19.159,18.507q-4.476,3.515-8.941,6.541t-8.3,5.9a102.383,102.383,0,0,1,6.706-23.772,95.381,95.381,0,0,1,9.579-17.55,47.366,47.366,0,0,1,10.378-11.009q5.268-3.828,9.1-3.829A6.264,6.264,0,0,1,803.467,678.35Zm221.063,63.976q0.48-2.871-.48-4.148c-0.64-.847-1.76-1.166-3.35-0.957a8.971,8.971,0,0,0-4.95,2.872q-7.035,7.022-14.21,13.4a141.46,141.46,0,0,1-14.213,11.168,78.651,78.651,0,0,1-13.411,7.5,29.831,29.831,0,0,1-11.5,2.712q-3.2,0-6.067-3.191a38.655,38.655,0,0,1-5.588-8.615,117.533,117.533,0,0,1-5.269-12.444q-2.559-7.015-4.79-15,7.342-8.295,13.891-15.317T965.933,708.5q6.705-7.014,13.411-14.04,5.748-6.057,12.294-12.6t11.972-11.647a60.837,60.837,0,0,1-9.9-4.786q-2.238-1.272-4.151-2.553a11.205,11.205,0,0,0-9.26-2.234q-5.112.959-11.5,8.3-0.643.642-3.513,3.829t-7.5,8.615q-4.634,5.43-10.857,12.444t-12.932,15a5.08,5.08,0,0,1-.639-2.233q-5.746-22.653-11.335-35.578T909.1,658.088a18.279,18.279,0,0,0-6.067,1.276,38.2,38.2,0,0,0-6.546,3.031,41.583,41.583,0,0,0-7.5,5.584,15.114,15.114,0,0,1,8.142,8.616q2.4,6.064,5.588,15.316,1.595,4.472,5.109,15t7.983,22.655q-7.663,8.937-15.965,18.507-7.35,8.3-16.445,18.666t-18.36,20.9a4.341,4.341,0,0,0,.479,3.031q0.8,1.435,1.436,2.393a21.227,21.227,0,0,0,1.916,2.234,12.27,12.27,0,0,0,3.193,2.233q1.6,0.636,3.832,1.277a10.4,10.4,0,0,0,5.109,0q7.979-8.3,15.646-16.433t13.731-14.519q7.02-7.657,13.411-14.359,1.595,5.43,3.033,9.892t2.715,7.977q0.957,3.193,2.554,7.658a36.773,36.773,0,0,0,4.47,8.616,27.5,27.5,0,0,0,7.025,7.02,17.519,17.519,0,0,0,10.218,2.871,53.553,53.553,0,0,0,10.857-1.276q6.062-1.279,14.05-6.063t18.36-14.518q10.371-9.731,23.784-26.644Q1024.045,745.2,1024.53,742.326Zm180.34-23.612q0.8-3.83-.47-5.744a3.464,3.464,0,0,0-3.84-1.435,9.507,9.507,0,0,0-5.11,3.35q-1.9,2.558-6.22,7.977t-9.74,12.445q-5.43,7.022-11.66,14.518t-11.97,13.721a92.474,92.474,0,0,1-10.86,10.21q-5.1,3.995-8.3,3.989a8.914,8.914,0,0,1-5.91-1.755,10.1,10.1,0,0,1-3.03-4.627,23.13,23.13,0,0,1-1.12-6.222,39.361,39.361,0,0,1,.16-6.222q0.96-4.787,1.6-7.977c0.42-2.124.8-3.989,1.12-5.584s0.64-3.191.95-4.787,0.69-3.35,1.12-5.264q3.2-14.673,5.11-23.932t2.87-14.678a51.424,51.424,0,0,0,.96-7.5,7.343,7.343,0,0,0-.32-2.713,6.7,6.7,0,0,0-2.55-.319c-1.07,0-2.61.11-4.63,0.319a73.759,73.759,0,0,0-7.5,1.277q6.705-10.209,5.26-16.433a15.231,15.231,0,0,0-5.9-9.413,39,39,0,0,0-14.05-5.106q-7.35-.635-18.52,5.106-11.19,5.743-22.67,17.071a141.423,141.423,0,0,0-21.24,27.282,118.378,118.378,0,0,0-14.21,35.418q-3.51,14.359-2.55,24.729t4.47,16.912a23.779,23.779,0,0,0,8.62,9.573,18.95,18.95,0,0,0,9.58,3.031,69.07,69.07,0,0,0,19.16-4.148,75.605,75.605,0,0,0,17.56-10.051q9.255-6.858,16.92-19.624a52.35,52.35,0,0,0,1.12,14.359,55.988,55.988,0,0,0,3.03,9.253,16.854,16.854,0,0,0,4.79,6.382,18.955,18.955,0,0,0,6.71,2.712,29.458,29.458,0,0,0,8.14.479,38.579,38.579,0,0,0,8.46-1.6,33.266,33.266,0,0,0,7.35-3.191q4.785-3.186,11.97-11.008t14.69-17.231q7.5-9.408,14.53-18.826t11.49-15.795Q1204.08,722.548,1204.87,718.714Zm-100.9,28.08a78.165,78.165,0,0,1-6.07,7.658,73.979,73.979,0,0,1-8.3,7.977,52.256,52.256,0,0,1-9.26,6.222,21.424,21.424,0,0,1-9.1,2.553,10.412,10.412,0,0,1-7.98-3.351q-1.92-1.914-2.56-8.136a63.038,63.038,0,0,1,.48-14.519,112.516,112.516,0,0,1,4-17.709,84.817,84.817,0,0,1,7.66-17.709q11.49-20.1,20.27-27.6t12.3-4.627a7.659,7.659,0,0,1,1.28,3.51,18.215,18.215,0,0,1-.16,5.265,29.457,29.457,0,0,1-3.04,8.456,43.9,43.9,0,0,1,5.11-.958,16.887,16.887,0,0,0,4.15-.957,30,30,0,0,1,3.52-.957q1.26-.315.47,4.946t-2.39,13.242q-1.605,7.978-3.83,16.592t-3.83,15A17.177,17.177,0,0,1,1103.97,746.794Zm140.91,28.717q-1.59-3.186-4.15-8.775a147.283,147.283,0,0,1-5.74-15.475l-6.71,2.233a23.057,23.057,0,0,0-4.47,1.915c-1.28.852-2.35,1.6-3.19,2.234a33.186,33.186,0,0,0-4.79,5.105,46.1,46.1,0,0,0-3.52,6.063q-1.59,2.871.48,8.3a45.4,45.4,0,0,0,16.93,20.74A23.027,23.027,0,0,0,1242.65,802a36.079,36.079,0,0,0,18.36-5.106,70.862,70.862,0,0,0,15.65-12.285,86.165,86.165,0,0,0,11.49-14.837q4.62-7.659,5.59-13.083a18.567,18.567,0,0,0-.96-8.615,115.356,115.356,0,0,0-4.15-11.009q-2.565-5.9-5.75-11.965t-6.06-11.806a84.891,84.891,0,0,1-4.16-9.892q-1.59-4.465-3.35-10.53a90.361,90.361,0,0,1-2.71-13.4q4.785-5.744,7.34-9.413a52.226,52.226,0,0,0,3.83-6.222q1.275-2.55,1.92-4.148a7.239,7.239,0,0,0-1.92-6.222,27.663,27.663,0,0,0-6.7-5.584q-5.115-2.55-11.5-.16a46.394,46.394,0,0,0-12.45,7.18,58.754,58.754,0,0,0-10.54,10.689q-4.47,5.909-5.75,10.37a11.825,11.825,0,0,0,.8,9.573c1.6,2.767,2.18,5,1.76,6.7a41.314,41.314,0,0,1-3.51,5.584q-3.2,4.629-7.03,10.53t-7.66,11.487q-3.84,5.586-5.75,8.137c-1.71,2.552-2.5,4.736-2.39,6.541a5.72,5.72,0,0,0,1.75,4.148,4.363,4.363,0,0,0,3.99.957,9.517,9.517,0,0,0,4.95-3.35q1.6-1.916,5.75-7.18t8.78-11.487q4.62-6.222,8.62-11.966t5.59-8.3a42.752,42.752,0,0,1,1.76,4.627q1.11,3.351,2.39,6.86,1.275,4.151,3.19,8.935,2.235,6.387,5.43,14.04t5.91,15.156a94.927,94.927,0,0,1,3.99,14.04q1.275,6.543,0,10.051a13,13,0,0,1-3.99,5.744,23.128,23.128,0,0,1-5.75,3.51,15.483,15.483,0,0,1-6.06,1.276,8.726,8.726,0,0,1-4.95-1.276,16.092,16.092,0,0,1-3.52-4.787h0ZM803.448,913.139q10.017-2.439,22.492-5.13t26.648-5.13q14.175-2.439,28.847-4.4L848.676,1034.31q-11.253,47.895-20.047,84.77-8.8,36.9-15.157,64.5-6.36,27.615-11,46.91t-7.579,32q-7.335,30.285-8.8,37.13-1.961,7.815.733,10.51,2.682,2.67,14.424,2.68a52.336,52.336,0,0,0,11.735-1.46,98.909,98.909,0,0,0,12.224-3.18,105.053,105.053,0,0,0,14.668-6.1q0.974-8.8,2.445-19.55t3.178-22.47q1.707-11.73,3.911-23.95t4.156-23.45q4.882-26.865,9.779-54.72,4.882-28.83,13.446-64.74t18.091-72.31q9.536-36.4,18.825-69.385t15.646-55.457h26.4q11.734,0,27.137.245t32.028,0.733a19.721,19.721,0,0,0,5.13-3.665,23.971,23.971,0,0,0,3.67-4.642,11.586,11.586,0,0,0,2.44-5.374q0.48-2.933.98-5.863a19.009,19.009,0,0,0-.49-9.772q-15.645-1.947-31.535-3.176t-28.6-2.2q-15.16-.974-29.337-1.466a32.593,32.593,0,0,0-4.645-.733,24.36,24.36,0,0,0-7.09.733c-2.612,0-5.217-.076-7.823-0.244s-5.218-.244-7.823-0.244q-18.095,0-37.649,1.465-17.12.986-38.382,2.932T790,870.631a14.132,14.132,0,0,0-7.089,3.665,24.985,24.985,0,0,0-4.645,6.6,45.571,45.571,0,0,0-3.178,8.306,61.655,61.655,0,0,0-1.712,7.818,64.643,64.643,0,0,0-.489,8.062,18.991,18.991,0,0,0,1.467,7.573,9.294,9.294,0,0,0,4.4,4.886q2.933,1.466,8.8-.489Q793.425,915.583,803.448,913.139ZM1265.4,1112q1.215-5.865-.73-8.79c-1.31-1.96-3.26-2.69-5.87-2.2s-5.21,2.2-7.82,5.13q-2.925,3.915-9.53,12.21-6.6,8.31-14.92,19.06t-17.84,22.23q-9.54,11.49-18.34,21.01a143.123,143.123,0,0,1-16.62,15.63q-7.83,6.12-12.72,6.11c-3.91,0-6.92-.89-9.04-2.69a15.381,15.381,0,0,1-4.65-7.08,35.5,35.5,0,0,1-1.71-9.53,59.138,59.138,0,0,1,.25-9.53q1.47-7.32,2.44-12.21c0.65-3.25,1.22-6.11,1.71-8.55s0.98-4.89,1.47-7.33,1.05-5.13,1.71-8.06q4.89-22.47,7.82-36.65,2.94-14.16,4.41-22.47a79.773,79.773,0,0,0,1.46-11.49,11.28,11.28,0,0,0-.49-4.15,10.256,10.256,0,0,0-3.91-.49c-1.63,0-3.99.17-7.09,0.49a113.52,113.52,0,0,0-11.49,1.96q10.275-15.645,8.07-25.17t-9.05-14.41q-8.31-5.37-21.51-7.82-11.25-.975-28.36,7.82t-34.71,26.14a217.054,217.054,0,0,0-32.52,41.77,180.946,180.946,0,0,0-21.76,54.24q-5.37,21.99-3.91,37.87t6.85,25.89q5.37,10.02,13.2,14.66t14.67,4.64a105.7,105.7,0,0,0,29.33-6.35q12.72-4.875,26.9-15.39,14.175-10.5,25.91-30.05-0.495,13.185,1.71,21.99a84.186,84.186,0,0,0,4.65,14.17,25.725,25.725,0,0,0,7.33,9.77,29.141,29.141,0,0,0,10.27,4.15,45.153,45.153,0,0,0,12.47.73,58.5,58.5,0,0,0,12.95-2.44,50.929,50.929,0,0,0,11.25-4.88q7.335-4.89,18.33-16.86t22.5-26.39q11.475-14.4,22.24-28.82t17.61-24.19Q1264.185,1117.865,1265.4,1112Zm-154.5,43a122.376,122.376,0,0,1-9.29,11.72,113.977,113.977,0,0,1-12.71,12.22,80.787,80.787,0,0,1-14.18,9.53,32.839,32.839,0,0,1-13.94,3.9,15.916,15.916,0,0,1-12.22-5.13q-2.94-2.925-3.91-12.45a94.7,94.7,0,0,1,.73-22.24,172.375,172.375,0,0,1,6.11-27.11,129.706,129.706,0,0,1,11.74-27.12q17.6-30.78,31.04-42.26t18.83-7.09a11.566,11.566,0,0,1,1.95,5.38,27.9,27.9,0,0,1-.24,8.06q-0.735,5.13-4.65,12.94a69.033,69.033,0,0,1,7.83-1.46,25.6,25.6,0,0,0,6.35-1.47,46.482,46.482,0,0,1,5.38-1.46q1.95-.48.74,7.57-1.23,8.07-3.67,20.28-2.46,12.21-5.87,25.4t-5.87,22.97C1114.73,1148.81,1113.34,1151.42,1110.9,1155Zm134.36,278.5q7.59-1.965,10.51-15.15,8.325-48.375,15.89-86.24t12.96-64.25q6.345-30.78,12.22-54.23c0.32-1.63.57-2.93,0.74-3.91s0.4-2.11.73-3.42a80.75,80.75,0,0,0,3.91,10.99,41.544,41.544,0,0,0,6.36,10.26,26.95,26.95,0,0,0,10.02,7.33,35.63,35.63,0,0,0,14.43,2.69,49.239,49.239,0,0,0,18.09-3.66,73.81,73.81,0,0,0,18.09-10.51c2.27,0.98,4.23,1.87,5.87,2.69q2.43,1.215,5.13,2.44a23.116,23.116,0,0,0,6.6,1.71,87.538,87.538,0,0,0,10.27.49q13.2,0,27.13-7.08a152.154,152.154,0,0,0,27.14-17.84,231.628,231.628,0,0,0,25.18-23.94q11.985-13.185,21.27-25.41t15.65-21.98a122.563,122.563,0,0,0,8.31-14.17q2.925-6.345,2.93-10.51c0-2.76-.65-4.64-1.95-5.62s-3.1-.89-5.38.25-4.73,3.34-7.34,6.59q-2.925,3.435-8.8,11.48-5.865,8.07-14.42,18.08t-19.07,20.77a246.03,246.03,0,0,1-21.76,19.79,127.969,127.969,0,0,1-22.98,14.9,51.152,51.152,0,0,1-22.98,5.86,12.405,12.405,0,0,1-3.18-.24,0.874,0.874,0,0,1-.73-0.49,0.73,0.73,0,0,0-.49-0.49,17.243,17.243,0,0,0-2.44-.73,258.06,258.06,0,0,0,32.27-53.26,185.485,185.485,0,0,0,10.02-27.85,119.079,119.079,0,0,0,4.16-25.9,178.4,178.4,0,0,0-.49-22.72,68.545,68.545,0,0,0-4.89-20.76,37.056,37.056,0,0,0-11-14.9q-7.1-5.61-18.34-5.62a46.2,46.2,0,0,0-17.36,3.66,92.912,92.912,0,0,0-17.6,9.53,176.044,176.044,0,0,0-16.87,13.19,166.586,166.586,0,0,0-15.15,15.15,25.143,25.143,0,0,1,.24-3.67c0.16-1.13.4-2.51,0.73-4.15q2.445-16.125-.73-23.45t-16.38-8.31a30.3,30.3,0,0,0-10.76.98,55.373,55.373,0,0,0-11,3.66,51.088,51.088,0,0,0-11.98,7.58,23.941,23.941,0,0,1,7.34,19.79q-0.99,11.475-5.87,30.53-3.915,17.115-8.56,36.65t-8.55,36.64q-4.9,19.56-9.78,39.09-5.385,20.52-12.71,50.82-6.855,25.89-16.38,64.49T1210.3,1412a31.734,31.734,0,0,0,4.89,9.04,43.167,43.167,0,0,0,5.87,6.11,26.962,26.962,0,0,0,6.84,4.39Q1237.7,1435.455,1245.26,1433.5Zm108.55-351.06q17.835-17.835,33-17.83,10.275,0,14.67,8.3t3.42,22.97a75.478,75.478,0,0,1-5.13,23.45,177.912,177.912,0,0,1-11.25,23.94,224.061,224.061,0,0,1-14.67,22.72q-8.07,10.995-15.4,19.79-11.73-6.345-20.05-11.97t-13.69-5.62a34.15,34.15,0,0,0-9.78,1.46,28.071,28.071,0,0,0-8.8,4.4q3.42-15.135,6.12-26.14,2.67-11,5.13-19.3Q1335.95,1100.275,1353.81,1082.44Z" transform="translate(-32 -363)"/>
  <circle class="cls-2" cx="962.031" cy="661.5" r="651.5"/>
  <path class="cls-3" d="M1698.88,988.409q59.19-24.282,106.84-45.246c34.24-14.991,64.04-28.553,89.46-40.448,75-35.092,111.84-55.679,111.84-55.679l-45.7-79.522s28.26-26.895-13.97-75.884S1882.7,616.026,1578,631C1577.15,631.421,1683.76,770.271,1698.88,988.409ZM314.647,847.585c-76.636,1.573-121.095-30.388-177.656-24.908-86.86,8.416-76.442,69.651-93.753,179.373s150.609,354.19,150.609,354.19,21.006,109.93,58.472,146.58-31.736,28.23,83.525-.74c28.387-7.14,62.966-22.84,109.156-36.08C449.252,1464.78,213.127,1232.98,314.647,847.585ZM1608,656" transform="translate(-32 -363)"/>
</svg>
